<svg xmlns="http://www.w3.org/2000/svg" version="1.1" xmlns:xlink="http://www.w3.org/1999/xlink" width="1000" height="1000"><style>
    #light-icon {
      display: inline;
    }
    #dark-icon {
      display: none;
    }

    @media (prefers-color-scheme: dark) {
      #light-icon {
        display: none;
      }
      #dark-icon {
        display: inline;
      }
    }
  </style><g id="light-icon"><svg xmlns="http://www.w3.org/2000/svg" version="1.1" xmlns:xlink="http://www.w3.org/1999/xlink" width="1000" height="1000"><g><g transform="matrix(31.25,0,0,31.25,0,0)"><svg xmlns="http://www.w3.org/2000/svg" version="1.1" xmlns:xlink="http://www.w3.org/1999/xlink" width="32" height="32"><svg width="32" height="32" viewBox="0 0 32 32" fill="none" xmlns="http://www.w3.org/2000/svg">
<g clip-path="url(#clip0_905_235)">
<mask id="mask0_905_235" style="mask-type:luminance" maskUnits="userSpaceOnUse" x="0" y="0" width="32" height="32">
<path d="M32 0H0V32H32V0Z" fill="white"></path>
</mask>
<g mask="url(#mask0_905_235)">
<path d="M16 32C24.8366 32 32 24.8366 32 16C32 7.16344 24.8366 0 16 0C7.16344 0 0 7.16344 0 16C0 24.8366 7.16344 32 16 32Z" fill="#464646"></path>
<path d="M16 28C22.6274 28 28 22.6274 28 16C28 9.37258 22.6274 4 16 4C9.37258 4 4 9.37258 4 16C4 22.6274 9.37258 28 16 28Z" fill="white"></path>
<path d="M13 4.5C13 4.22386 13.2239 4 13.5 4H18.5C18.7761 4 19 4.22386 19 4.5V7.5C19 7.77614 18.7761 8 18.5 8H13.5C13.2239 8 13 7.77614 13 7.5V4.5Z" fill="#464646"></path>
<path d="M13 24.5C13 24.2239 13.2239 24 13.5 24H18.5C18.7761 24 19 24.2239 19 24.5V27.5C19 27.7761 18.7761 28 18.5 28H13.5C13.2239 28 13 27.7761 13 27.5V24.5Z" fill="#464646"></path>
<path d="M27.4575 19.153C27.6967 19.2911 27.7786 19.5969 27.6405 19.8361L25.1405 24.1662C25.0025 24.4053 24.6967 24.4873 24.4575 24.3492L21.8594 22.8492C21.6203 22.7111 21.5384 22.4053 21.6764 22.1662L24.1764 17.8361C24.3145 17.5969 24.6203 17.515 24.8594 17.653L27.4575 19.153Z" fill="#464646"></path>
<path d="M10.1372 9.15301C10.3763 9.29108 10.4583 9.59688 10.3202 9.83603L7.82023 14.1662C7.68216 14.4053 7.37637 14.4873 7.13722 14.3492L4.53914 12.8492C4.3 12.7111 4.21806 12.4053 4.35613 12.1662L6.85613 7.83603C6.9942 7.59688 7.3 7.51494 7.53914 7.65301L10.1372 9.15301Z" fill="#464646"></path>
<path d="M7.54306 24.3492C7.30391 24.4872 6.99812 24.4053 6.86004 24.1661L4.36004 19.836C4.22197 19.5969 4.30391 19.2911 4.54306 19.153L7.14113 17.653C7.38028 17.5149 7.68608 17.5969 7.82415 17.836L10.3242 22.1661C10.4622 22.4053 10.3803 22.7111 10.1412 22.8492L7.54306 24.3492Z" fill="#464646"></path>
<path d="M24.8634 14.3492C24.6243 14.4872 24.3185 14.4053 24.1804 14.1661L21.6804 9.83603C21.5423 9.59688 21.6243 9.29109 21.8634 9.15301L24.4615 7.65301C24.7006 7.51494 25.0064 7.59688 25.1445 7.83603L27.6445 12.1661C27.7826 12.4053 27.7006 12.7111 27.4615 12.8492L24.8634 14.3492Z" fill="#464646"></path>
</g>
</g>
<defs>
<clipPath id="clip0_905_235">
<rect width="32" height="32" fill="white"></rect>
</clipPath>
</defs>
</svg></svg></g></g></svg></g><g id="dark-icon"><svg xmlns="http://www.w3.org/2000/svg" version="1.1" xmlns:xlink="http://www.w3.org/1999/xlink" width="1000" height="1000"><g clip-path="url(#SvgjsClipPath1018)"><rect width="1000" height="1000" fill="#ffffff"></rect><g transform="matrix(28.125,0,0,28.125,50,50)"><svg xmlns="http://www.w3.org/2000/svg" version="1.1" xmlns:xlink="http://www.w3.org/1999/xlink" width="32" height="32"><svg width="32" height="32" viewBox="0 0 32 32" fill="none" xmlns="http://www.w3.org/2000/svg">
<g clip-path="url(#clip0_905_235)">
<mask id="mask0_905_235" style="mask-type:luminance" maskUnits="userSpaceOnUse" x="0" y="0" width="32" height="32">
<path d="M32 0H0V32H32V0Z" fill="white"></path>
</mask>
<g mask="url(#mask0_905_235)">
<path d="M16 32C24.8366 32 32 24.8366 32 16C32 7.16344 24.8366 0 16 0C7.16344 0 0 7.16344 0 16C0 24.8366 7.16344 32 16 32Z" fill="#464646"></path>
<path d="M16 28C22.6274 28 28 22.6274 28 16C28 9.37258 22.6274 4 16 4C9.37258 4 4 9.37258 4 16C4 22.6274 9.37258 28 16 28Z" fill="white"></path>
<path d="M13 4.5C13 4.22386 13.2239 4 13.5 4H18.5C18.7761 4 19 4.22386 19 4.5V7.5C19 7.77614 18.7761 8 18.5 8H13.5C13.2239 8 13 7.77614 13 7.5V4.5Z" fill="#464646"></path>
<path d="M13 24.5C13 24.2239 13.2239 24 13.5 24H18.5C18.7761 24 19 24.2239 19 24.5V27.5C19 27.7761 18.7761 28 18.5 28H13.5C13.2239 28 13 27.7761 13 27.5V24.5Z" fill="#464646"></path>
<path d="M27.4575 19.153C27.6967 19.2911 27.7786 19.5969 27.6405 19.8361L25.1405 24.1662C25.0025 24.4053 24.6967 24.4873 24.4575 24.3492L21.8594 22.8492C21.6203 22.7111 21.5384 22.4053 21.6764 22.1662L24.1764 17.8361C24.3145 17.5969 24.6203 17.515 24.8594 17.653L27.4575 19.153Z" fill="#464646"></path>
<path d="M10.1372 9.15301C10.3763 9.29108 10.4583 9.59688 10.3202 9.83603L7.82023 14.1662C7.68216 14.4053 7.37637 14.4873 7.13722 14.3492L4.53914 12.8492C4.3 12.7111 4.21806 12.4053 4.35613 12.1662L6.85613 7.83603C6.9942 7.59688 7.3 7.51494 7.53914 7.65301L10.1372 9.15301Z" fill="#464646"></path>
<path d="M7.54306 24.3492C7.30391 24.4872 6.99812 24.4053 6.86004 24.1661L4.36004 19.836C4.22197 19.5969 4.30391 19.2911 4.54306 19.153L7.14113 17.653C7.38028 17.5149 7.68608 17.5969 7.82415 17.836L10.3242 22.1661C10.4622 22.4053 10.3803 22.7111 10.1412 22.8492L7.54306 24.3492Z" fill="#464646"></path>
<path d="M24.8634 14.3492C24.6243 14.4872 24.3185 14.4053 24.1804 14.1661L21.6804 9.83603C21.5423 9.59688 21.6243 9.29109 21.8634 9.15301L24.4615 7.65301C24.7006 7.51494 25.0064 7.59688 25.1445 7.83603L27.6445 12.1661C27.7826 12.4053 27.7006 12.7111 27.4615 12.8492L24.8634 14.3492Z" fill="#464646"></path>
</g>
</g>
<defs>
<clipPath id="clip0_905_235">
<rect width="32" height="32" fill="white"></rect>
</clipPath>
<clipPath id="SvgjsClipPath1018"><rect width="1000" height="1000" x="0" y="0" rx="500" ry="500"></rect></clipPath></defs>
</svg></svg></g></g></svg></g></svg>