<svg width="48" height="48" viewBox="0 0 32 32" fill="none" xmlns="http://www.w3.org/2000/svg">
<style>
  .outer { fill: #464646; }
  .inner { fill: white; }
  .accent { fill: #464646; }
  
  @media (prefers-color-scheme: dark) {
    .outer { fill: white; }
    .inner { fill: #1a1a1a; }
    .accent { fill: white; }
  }
</style>
<g clip-path="url(#clip0_863_179)">
<circle cx="16" cy="16" r="16" class="outer"/>
<circle cx="16" cy="16" r="12" class="inner"/>
<path d="M13 4.5C13 4.22386 13.2239 4 13.5 4H18.5C18.7761 4 19 4.22386 19 4.5V7.5C19 7.77614 18.7761 8 18.5 8H13.5C13.2239 8 13 7.77614 13 7.5V4.5Z" class="accent"/>
<path d="M13 24.5C13 24.2239 13.2239 24 13.5 24H18.5C18.7761 24 19 24.2239 19 24.5V27.5C19 27.7761 18.7761 28 18.5 28H13.5C13.2239 28 13 27.7761 13 27.5V24.5Z" class="accent"/>
<path d="M27.4576 19.1523C27.6968 19.2904 27.7787 19.5962 27.6406 19.8354L25.1406 24.1655C25.0026 24.4046 24.6968 24.4866 24.4576 24.3485L21.8595 22.8485C21.6204 22.7104 21.5385 22.4046 21.6765 22.1655L24.1765 17.8354C24.3146 17.5962 24.6204 17.5143 24.8595 17.6523L27.4576 19.1523Z" class="accent"/>
<path d="M10.1373 9.15234C10.3764 9.29041 10.4584 9.59621 10.3203 9.83536L7.82031 14.1655C7.68224 14.4046 7.37645 14.4866 7.1373 14.3485L4.53922 12.8485C4.30008 12.7104 4.21814 12.4046 4.35621 12.1655L6.85621 7.83536C6.99428 7.59621 7.30008 7.51427 7.53922 7.65234L10.1373 9.15234Z" class="accent"/>
<path d="M7.54239 24.3477C7.30324 24.4857 6.99745 24.4038 6.85937 24.1646L4.35937 19.8345C4.2213 19.5954 4.30324 19.2896 4.54239 19.1515L7.14046 17.6515C7.37961 17.5134 7.68541 17.5954 7.82348 17.8345L10.3235 22.1646C10.4615 22.4038 10.3796 22.7096 10.1405 22.8477L7.54239 24.3477Z" class="accent"/>
<path d="M24.8627 14.3477C24.6236 14.4857 24.3178 14.4038 24.1797 14.1646L21.6797 9.83452C21.5416 9.59537 21.6236 9.28958 21.8627 9.1515L24.4608 7.6515C24.6999 7.51343 25.0057 7.59537 25.1438 7.83452L27.6438 12.1646C27.7819 12.4038 27.6999 12.7096 27.4608 12.8477L24.8627 14.3477Z" class="accent"/>
</g>
<defs>
<clipPath id="clip0_863_179">
<rect width="32" height="32" fill="white"/>
</clipPath>
</defs>
</svg>
